<?xml version="1.0" encoding="utf-8"?>
<!-- Generator: Adobe Illustrator 25.2.0, SVG Export Plug-In . SVG Version: 6.00 Build 0)  -->
<svg version="1.1" id="Layer_1" xmlns="http://www.w3.org/2000/svg" xmlns:xlink="http://www.w3.org/1999/xlink" x="0px" y="0px"
	 viewBox="0 0 751.34 1080" style="enable-background:new 0 0 751.34 1080;" xml:space="preserve">
<style type="text/css">
	.st0{fill:#659CD3;}
	.st1{fill:#283985;}
	.st2{fill:#B4DFE4;stroke:#B4DFE4;stroke-width:3;stroke-miterlimit:10;}
	.st3{fill:none;stroke:#FFFFFF;stroke-width:3;stroke-miterlimit:10;}
	.st4{fill:none;stroke:#F1F2F2;stroke-width:3;stroke-miterlimit:10;}
	.st5{fill:none;stroke:#283985;stroke-miterlimit:10;}
	.st6{fill:#D36875;}
	.st7{fill:#FFFFFF;}
	.st8{fill:#8BCED1;stroke:#8BCED1;stroke-width:6;stroke-miterlimit:10;}
	.st9{fill:#F1F2F2;stroke:#F1F2F2;stroke-width:3;stroke-miterlimit:10;}
</style>
<path class="st0" d="M100.58,345.6c0,0-102.73-125.89-53.59-216.12c48.21-88.51,114.87,10.66,71.87,51.48
	C83.42,214.59,113.33,363.66,100.58,345.6z"/>
<path class="st0" d="M123.26,327.78c0,0-3.36-173.51,102.81-223c104.15-48.55,94.18,79.43,27.78,89.15
	C199.13,201.95,121.98,351.46,123.26,327.78z"/>
<path class="st0" d="M213,274.61c0,0,54.12-94.34,137.96-91.26c82.25,3.03,34.38,69.13-11.17,55.77
	C302.25,228.11,204.5,287,213,274.61z"/>
<path class="st0" d="M353.09,369.57c0,0,74.1,137.66,172.41,127.19c96.43-10.28,32.8-106.04-19.31-82.83
	C463.24,433.04,341.72,351.58,353.09,369.57z"/>
<path class="st0" d="M321.48,377.31c0,0-3.23,166.94,98.92,214.56c100.21,46.71,90.61-76.43,26.73-85.78
	C394.47,498.38,320.24,354.53,321.48,377.31z"/>
<path class="st0" d="M417.88,343.04c0,0,74.46,73.53,151.4,49.09c75.48-23.98,14.08-72.94-24.71-48.83
	C512.6,363.17,406.81,333.74,417.88,343.04z"/>
<path class="st0" d="M91.32,379.29c0,0-108.86,253.1-69.49,477.56c38.62,220.19,112.49,32.76,59.58-70.9
	C29.67,684.57,105.04,342.27,91.32,379.29z"/>
<path class="st0" d="M114.58,415.09c0,0-53.51,210.68,3.64,373.13c56.06,159.36,110.24-38.6,45.11-83.36
	C103.15,663.52,120.71,384.67,114.58,415.09z"/>
<path class="st0" d="M142.64,439.94c0,0-6.51,152.65,56.1,249.14c61.42,94.66,66.19-26.38,19.02-65.55
	C179.66,591.88,142.48,418.25,142.64,439.94z"/>
</svg>
