<?xml version="1.0" encoding="utf-8"?>
<!-- Generator: Adobe Illustrator 25.2.0, SVG Export Plug-In . SVG Version: 6.00 Build 0)  -->
<svg version="1.1" id="Layer_1" xmlns="http://www.w3.org/2000/svg" xmlns:xlink="http://www.w3.org/1999/xlink" x="0px" y="0px"
	 viewBox="0 0 1007.77 1080" style="enable-background:new 0 0 1007.77 1080;" xml:space="preserve">
<style type="text/css">
	.st0{fill:#659CD3;}
	.st1{fill:#283985;}
	.st2{fill:#B4DFE4;stroke:#B4DFE4;stroke-width:3;stroke-miterlimit:10;}
	.st3{fill:none;stroke:#FFFFFF;stroke-width:3;stroke-miterlimit:10;}
	.st4{fill:none;stroke:#F1F2F2;stroke-width:3;stroke-miterlimit:10;}
	.st5{fill:none;stroke:#283985;stroke-miterlimit:10;}
	.st6{fill:#D36875;}
	.st7{fill:#FFFFFF;}
	.st8{fill:#8BCED1;stroke:#8BCED1;stroke-width:6;stroke-miterlimit:10;}
	.st9{fill:#F1F2F2;stroke:#F1F2F2;stroke-width:3;stroke-miterlimit:10;}
</style>
<path class="st0" d="M414.59,849.76c0,0,89.98-9.46,115.82-74.29c25.35-63.6-41.04-49.4-46.19-10.25
	C479.98,797.49,402.31,852.06,414.59,849.76z"/>
<path class="st0" d="M854.34,566.83c0,0-56.32,16.63-64.81,57.78c-8.5,41.2,29.7,24.1,27.1-2.09
	C814.04,596.3,861.77,564.18,854.34,566.83z"/>
<path class="st0" d="M830.54,544.79c0,0-88.1,22.01-90.34,80.54c-2.17,56.77,51.64,28.91,33.53-0.06
	C758.44,600.82,840.89,541.09,830.54,544.79z"/>
<path class="st0" d="M521.76,599.29c0,0-5.21-73.79,48.53-115.89c52.72-41.3,76.55,8.47,16.11,32.79
	C559.52,527.01,521.58,609.7,521.76,599.29z"/>
<path class="st0" d="M610.5,376.62c0,0,96.22-15.85,151.19,47.78c53.93,62.42-31.34,104.85-42.74,24.72
	C714.27,416.2,596.92,377.68,610.5,376.62z"/>
<path class="st0" d="M366.35,473.85c0,0,8.02,43.06-21.37,79.07c-28.84,35.33-35.63-6.43-11.83-16.35
	C353.76,527.98,365.77,467.58,366.35,473.85z"/>
<path class="st0" d="M393.64,465.58c0,0,16.89,59.86-20.04,114.58c-36.23,53.68-49.89-2.2-18.84-21.6
	C389.71,536.73,392.01,456.8,393.64,465.58z"/>
<path class="st0" d="M605.33,883.62c0,0,1.98-53.55,44.75-83.62c45.69-32.13,30.28,18.44,6.57,20.48
	C633.41,822.49,604,890.69,605.33,883.62z"/>
<path class="st0" d="M583.49,878.08c0,0-6.02-73.42,46.5-126.94c51.52-52.5,66.36,15.35,25.87,23.33
	C612.5,783.01,582.41,888.15,583.49,878.08z"/>
<path class="st0" d="M247.08,842.75c0,0-36.79-51.06-20.63-115.87c15.85-63.58,48.19-15.18,25.39,14.02
	C226.17,773.75,251.67,850.53,247.08,842.75z"/>
<path class="st0" d="M424.72,945.75c0,0-61.24,38.91-131.66,14.72c-69.09-23.73-11.34-57.64,18.59-28.57
	C345.32,964.61,433.94,941.02,424.72,945.75z"/>
<path class="st0" d="M431.57,915.01c0,0-45.67,29.02-98.2,10.98c-51.53-17.7-8.46-42.99,13.86-21.31
	C372.35,929.07,438.44,911.47,431.57,915.01z"/>
<path class="st0" d="M705.94,904.36c0,0-11.53,71.63-76.37,108.26c-63.6,35.93-50.64-29.77-9.04-32.87
	C667.35,976.28,708.51,894.33,705.94,904.36z"/>
<path class="st0" d="M687.48,878.84c0,0-8.6,53.42-56.96,80.74c-47.43,26.8-37.77-22.2-6.74-24.51
	C658.7,932.47,689.4,871.35,687.48,878.84z"/>
<path class="st0" d="M212.31,827.37c0,0-50.05-69.46-28.07-157.63c21.57-86.49,65.56-20.65,34.54,19.07
	C183.87,733.51,218.55,837.97,212.31,827.37z"/>
<path class="st0" d="M168.63,812.63c0,0-63.49-87.22-36.32-198.44c26.65-109.11,82.48-26.42,43.63,23.81
	C132.22,694.54,176.56,825.94,168.63,812.63z"/>
</svg>
