<?xml version="1.0" encoding="utf-8"?>
<!-- Generator: Adobe Illustrator 25.2.0, SVG Export Plug-In . SVG Version: 6.00 Build 0)  -->
<svg version="1.1" id="Layer_1" xmlns="http://www.w3.org/2000/svg" xmlns:xlink="http://www.w3.org/1999/xlink" x="0px" y="0px"
	 viewBox="0 0 924.47 1080" style="enable-background:new 0 0 924.47 1080;" xml:space="preserve">
<style type="text/css">
	.st0{fill:#659CD3;}
	.st1{fill:#283985;}
	.st2{fill:#B4DFE4;stroke:#B4DFE4;stroke-width:3;stroke-miterlimit:10;}
	.st3{fill:none;stroke:#FFFFFF;stroke-width:3;stroke-miterlimit:10;}
	.st4{fill:none;stroke:#F1F2F2;stroke-width:3;stroke-miterlimit:10;}
	.st5{fill:none;stroke:#283985;stroke-miterlimit:10;}
	.st6{fill:#D36875;}
	.st7{fill:#FFFFFF;}
	.st8{fill:#8BCED1;stroke:#8BCED1;stroke-width:6;stroke-miterlimit:10;}
	.st9{fill:#F1F2F2;stroke:#F1F2F2;stroke-width:3;stroke-miterlimit:10;}
</style>
<path class="st0" d="M805.07-0.7c0,0,133.26,64.51,82.55,216.75c-46.68,140.16-113.99,63.01-52.2-21.7
	C907.69,95.27,788.59-9.51,805.07-0.7z"/>
<path class="st0" d="M776.03,0.71c0,0,87.33,70.29,31.58,182.84c-53.8,108.63-80.69,18.2-26.7-42.66
	C822.49,94.02,765.39-7.68,776.03,0.71z"/>
<path class="st0" d="M213.45,204.3c0,0,46.65-142.42,229.78-118.86c168.59,21.69,94.39,101.35-14.21,55.17
	C301.97,86.6,206.74,222.05,213.45,204.3z"/>
<path class="st0" d="M207.47,125.98c0,0,56.18-171.5,276.7-143.13c203.02,26.12,113.66,122.04-17.12,66.44
	C314.07-15.75,199.39,147.36,207.47,125.98z"/>
<path class="st0" d="M220.86,232.66c0,0,62.4-98.19,201.43-62.79c134.19,34.16,36.81,76.32-43.14,33.69
	C317.59,170.73,213.45,244.59,220.86,232.66z"/>
<path class="st0" d="M388.64,251.36c0,0,14.35,86.47-72.55,111.61c-83.88,24.26-54.33-37.47,6.07-37.24
	C368.66,325.9,386.8,240.91,388.64,251.36z"/>
<path class="st0" d="M131.93,167.12c0,0-87.47-5.66-103.82,83.31c-15.78,85.88,42.7,50.32,36.45-9.75
	C59.75,194.42,142.51,167.9,131.93,167.12z"/>
<path class="st0" d="M754.49,252.66c0,0-53.96,69.08-131.27,22.1c-74.62-45.34-9.17-65.36,31.53-20.73
	C686.08,288.39,760.94,244.24,754.49,252.66z"/>
<path class="st0" d="M771.57,302.67c0,0-60.26,80.39-157.62,30.97c-93.97-47.7-16.06-73.28,36.69-24.83
	C691.27,346.11,778.76,292.87,771.57,302.67z"/>
</svg>
