<?xml version="1.0" encoding="utf-8"?>
<!-- Generator: Adobe Illustrator 25.2.0, SVG Export Plug-In . SVG Version: 6.00 Build 0)  -->
<svg version="1.1" id="Layer_1" xmlns="http://www.w3.org/2000/svg" xmlns:xlink="http://www.w3.org/1999/xlink" x="0px" y="0px"
	 viewBox="0 0 755.94 1080" style="enable-background:new 0 0 755.94 1080;" xml:space="preserve">
<style type="text/css">
	.st0{fill:#659CD3;}
	.st1{fill:#283985;}
	.st2{fill:#B4DFE4;stroke:#B4DFE4;stroke-width:3;stroke-miterlimit:10;}
	.st3{fill:none;stroke:#FFFFFF;stroke-width:3;stroke-miterlimit:10;}
	.st4{fill:none;stroke:#F1F2F2;stroke-width:3;stroke-miterlimit:10;}
	.st5{fill:none;stroke:#283985;stroke-miterlimit:10;}
	.st6{fill:#D36875;}
	.st7{fill:#FFFFFF;}
	.st8{fill:#8BCED1;stroke:#8BCED1;stroke-width:6;stroke-miterlimit:10;}
	.st9{fill:#F1F2F2;stroke:#F1F2F2;stroke-width:3;stroke-miterlimit:10;}
</style>
<path class="st0" d="M56.91,778.72c0,0,233.49-252.58,280.6-533.17c46.21-275.25-118.76-85.38-99.64,58.65
	C256.57,445.07,25.35,816.59,56.91,778.72z"/>
<path class="st0" d="M44.44,726.9c0,0,150.69-225.69,151.05-440.7c0.36-210.91-145.83-0.46-87.79,79.33
	C161.31,439.25,24.57,760.15,44.44,726.9z"/>
<path class="st0" d="M21.76,685.97c0,0,71.21-176.96,37.69-316.6c-32.88-136.98-88.88,3.5-49.68,69.24
	C41.43,491.72,12.91,711.57,21.76,685.97z"/>
<path class="st0" d="M34.02,857.61c0,0,141.02,159.16,294.13,175.9c150.2,16.43,44.37-95.26-33.5-71.21
	C218.49,985.83,12.94,836.35,34.02,857.61z"/>
<path class="st0" d="M61.95,844.74c0,0,125.04,98.52,241.77,84.41c114.51-13.84,25.99-73.57-44.53-60.89
	C199.63,878.97,43.57,831.98,61.95,844.74z"/>
<path class="st0" d="M683.46,632.47c0,0-145.92-96.66-262.1-75.14c-113.97,21.1-6.57,87.36,43.71,50.02
	C514.24,570.83,704.59,644.87,683.46,632.47z"/>
<path class="st0" d="M666.58,649.29c0,0-117.85-51.18-199.15-13c-79.75,37.45,15.24,60.84,52.51,20.67
	C558.48,615.42,683.44,655.42,666.58,649.29z"/>
</svg>
