<?xml version="1.0" encoding="utf-8"?>
<!-- Generator: Adobe Illustrator 25.2.0, SVG Export Plug-In . SVG Version: 6.00 Build 0)  -->
<svg version="1.1" id="Layer_1" xmlns="http://www.w3.org/2000/svg" xmlns:xlink="http://www.w3.org/1999/xlink" x="0px" y="0px"
	 viewBox="0 0 700 700" style="enable-background:new 0 0 700 700;" xml:space="preserve">
<g>
	<path d="M554.27,344.72l0.01-0.05c0.01-0.23-0.01-0.46-0.05-0.68c-0.42-4.11-3.02-8.07-6.91-9.55c-1.92-0.7-3.89-1.27-5.9-1.69
		c-1.54-0.25-2.86-1.22-3.57-2.61c-2.98-5.49-7.62-8.98-13.59-10.77c-5.61-1.57-11.43-2.22-17.25-1.91
		c-3.35,0.07-6.49,1.64-8.55,4.29c-0.86,1.05-1.56,2.23-2.48,3.22c-0.87,1.1-1.92,2.05-3.09,2.82c-2.05,1.02-3.6,2.82-4.3,4.99
		c-0.44,1.44-0.79,2.91-1.11,4.39l0.03,0c-0.03,0.15-0.04,0.3-0.05,0.45l-0.38,3.34c-0.06,0.73,0.46,1.37,1.19,1.45l5.01,0.57
		c0.58-2.64,2.44-4.82,4.95-5.81c2.51-0.99,5.36-0.67,7.59,0.86c2.23,1.53,3.55,4.07,3.53,6.77l23.89,2.7l0.03-0.3
		c0.4-2.82,2.25-5.23,4.87-6.34c2.62-1.11,5.64-0.77,7.95,0.9s3.57,4.43,3.34,7.27l-0.03,0.3l3.03,0.34
		c0.72,0.08,1.38-0.43,1.48-1.15l0.41-3.62c0.01-0.06,0.02-0.12,0.02-0.17L554.27,344.72z M514.82,331.16
		c-4.01-0.45-7.92-0.79-11.8-1.38c-1.91-0.28-2.24-1.35-1.33-3.09c3.03-5.74,7.05-7.28,14.23-5.33L514.82,331.16z M532.05,333.11
		c-4.36-0.43-8.68-0.98-13.28-1.5l1.1-9.7c5.12-0.36,12.21,4.36,13.84,9.18c0.49,1.51,0.03,2.21-1.66,2.05L532.05,333.11z"/>
	<path d="M501.87,338.41c-1.69-0.19-3.38,0.3-4.7,1.36c-1.32,1.06-2.17,2.6-2.36,4.29s0.31,3.38,1.37,4.7
		c1.06,1.32,2.6,2.17,4.29,2.35c1.69,0.18,3.38-0.31,4.7-1.37c1.32-1.06,2.17-2.61,2.35-4.29c0.18-1.68-0.31-3.37-1.37-4.69
		C505.09,339.45,503.55,338.6,501.87,338.41z"/>
	<path d="M547.72,348.85c0.19-1.68-0.3-3.38-1.35-4.7c-1.06-1.33-2.6-2.18-4.28-2.37c-1.68-0.19-3.38,0.3-4.7,1.36
		c-1.33,1.06-2.18,2.6-2.37,4.28c-0.19,1.68,0.3,3.38,1.36,4.7c1.06,1.33,2.6,2.18,4.28,2.36c1.68,0.19,3.37-0.3,4.7-1.35
		C546.68,352.07,547.53,350.53,547.72,348.85L547.72,348.85z"/>
</g>
</svg>
