<?xml version="1.0" encoding="utf-8"?>
<!-- Generator: Adobe Illustrator 25.2.0, SVG Export Plug-In . SVG Version: 6.00 Build 0)  -->
<svg version="1.1" id="Layer_1" xmlns="http://www.w3.org/2000/svg" xmlns:xlink="http://www.w3.org/1999/xlink" x="0px" y="0px"
	 viewBox="0 0 700 700" style="enable-background:new 0 0 700 700;" xml:space="preserve">
<style type="text/css">
	.st0{fill-rule:evenodd;clip-rule:evenodd;}
</style>
<g>
	<g>
		<path class="st0" d="M500.49,412.2c-5.55,8.87-15.01,13.85-24.79,14.68c-7.83,5.26-20.55,6.65-20.55,6.65
			c2.94-2.49,5.55-5.26,7.18-8.03c-5.55-1.66-10.77-4.71-15.33-9.42c-5.22,7.2-8.81,8.31-18.27,8.31c2.28-5.26,6.2-9.7,13.7-12.19
			c-7.5-2.49-11.42-6.65-13.7-12.19c9.46,0,13.05,1.11,18.27,8.31c4.24-4.43,9.46-7.48,14.68-9.14c-1.63-2.49-3.91-4.99-6.52-7.2
			c0,0,10.76,1.39,18.27,5.54C484.51,397.52,494.62,402.79,500.49,412.2L500.49,412.2z"/>
	</g>
	<g>
		<path class="st0" d="M447.24,388.06c-1.73,2.76-4.67,4.31-7.72,4.57c-2.44,1.64-6.4,2.07-6.4,2.07c0.91-0.78,1.73-1.64,2.23-2.5
			c-1.73-0.52-3.35-1.47-4.77-2.93c-1.63,2.24-2.74,2.59-5.69,2.59c0.71-1.64,1.93-3.02,4.27-3.8c-2.34-0.78-3.55-2.07-4.27-3.8
			c2.95,0,4.06,0.35,5.69,2.59c1.32-1.38,2.95-2.33,4.57-2.85c-0.51-0.78-1.22-1.55-2.03-2.24c0,0,3.35,0.43,5.69,1.73
			C442.26,383.48,445.41,385.12,447.24,388.06L447.24,388.06z"/>
	</g>
	<g>
		<path class="st0" d="M424.89,406.53c-2.52,4.03-6.81,6.29-11.26,6.67c-3.55,2.39-9.33,3.02-9.33,3.02
			c1.33-1.13,2.52-2.39,3.26-3.65c-2.52-0.75-4.89-2.14-6.96-4.28c-2.37,3.27-4,3.77-8.29,3.77c1.04-2.39,2.81-4.4,6.22-5.54
			c-3.41-1.13-5.18-3.02-6.22-5.54c4.3,0,5.92,0.5,8.29,3.77c1.93-2.01,4.3-3.4,6.67-4.15c-0.74-1.13-1.78-2.26-2.96-3.27
			c0,0,4.89,0.63,8.29,2.52C417.64,399.87,422.23,402.26,424.89,406.53L424.89,406.53z"/>
	</g>
</g>
</svg>
