<?xml version="1.0" encoding="utf-8"?>
<!-- Generator: Adobe Illustrator 25.2.0, SVG Export Plug-In . SVG Version: 6.00 Build 0)  -->
<svg version="1.1" id="Layer_1" xmlns="http://www.w3.org/2000/svg" xmlns:xlink="http://www.w3.org/1999/xlink" x="0px" y="0px"
	 viewBox="0 0 179 126" style="enable-background:new 0 0 179 126;" xml:space="preserve">
<g>
	<path d="M109.63,105.89l1.88-29.18c3.01-0.74,5.33-3.69,5.65-7.31l1.04-11.16c0.19,0.27,0.32,0.41,0.51,0.67
		c0.51,0.67,0.83,1.4,0.93,2.28l1.19,8.5c0.21,1.44,1.07,2.42,2.2,2.74c0.49,0.14,1,0.18,1.57,0.02l0,0
		c1.74-0.57,2.94-2.67,2.82-4.72l-1.19-8.5c-0.34-2.22-1.17-4.25-2.46-5.89c-6.08-7.65-7-7.8-8-7.98l-5.22-1.05
		c-1.57-0.34-2.76-0.14-10.67,7.7c-0.35,0.32-0.73,0.43-1.09,0.44l-4.36-0.38l0.47-1.03c0.33-0.86,0.07-1.78-0.64-2.09
		c-0.7-0.3-1.52,0.1-1.85,0.96l-0.8,1.9c-1.6,0.08-3.07,1.57-3.35,3.51c-0.25,1.2,0.07,2.25,0.71,3.06l-8.2,20.38l1.91,2.55
		l8.78-21.8l5.98,0.52c2.14,0.18,4.39-0.67,6.11-2.41c0.35-0.32,0.71-0.65,1.06-0.97l-0.4,12.61l-6.07,1.04
		c-2.77,0.49-5.3,2.64-6.59,5.67l-5.6,12.94l6.5,4.51l5.77-14.08c0.06-0.2,0.16-0.27,0.35-0.32l5.34-0.93c0,0-0.64,22.02-0.33,23.45
		"/>
	<path d="M116.71,27.22c3.93,0.57,6.4,4.84,5.52,9.54s-4.78,8.05-8.7,7.48c-3.93-0.57-6.4-4.84-5.52-9.54
		C108.89,30,112.78,26.65,116.71,27.22"/>
</g>
</svg>
