<?xml version="1.0" encoding="utf-8"?>
<!-- Generator: Adobe Illustrator 25.2.0, SVG Export Plug-In . SVG Version: 6.00 Build 0)  -->
<svg version="1.1" id="Layer_1" xmlns="http://www.w3.org/2000/svg" xmlns:xlink="http://www.w3.org/1999/xlink" x="0px" y="0px"
	 viewBox="0 0 58 68" style="enable-background:new 0 0 58 68;" xml:space="preserve">
<g>
	<path d="M47.1,26.08l-2.44,0.72l-0.72-2.44c-0.09-0.32-0.31-0.59-0.61-0.76c-0.29-0.16-0.64-0.2-0.96-0.1l-10.38,3.04l-1.97-6.73
		c-0.24-0.8-0.79-1.48-1.53-1.88s-1.6-0.49-2.41-0.26c-0.8,0.24-1.48,0.78-1.88,1.52c-0.4,0.73-0.5,1.6-0.27,2.4l1.97,6.72
		l-10.39,3.04c-0.32,0.09-0.59,0.31-0.76,0.61c-0.16,0.29-0.2,0.64-0.1,0.96l0.72,2.44l-2.44,0.72c-0.32,0.09-0.59,0.31-0.76,0.61
		c-0.16,0.29-0.2,0.64-0.1,0.96l1.07,3.66c0.09,0.32,0.31,0.59,0.61,0.76c0.3,0.16,0.64,0.2,0.96,0.1l1.31-0.38l4.69,11.9l0.04,0.14
		l0,0c0.01,0.04,0.02,0.09,0.04,0.13c0.14,0.23,0.36,0.41,0.61,0.5c0.25,0.1,0.53,0.11,0.79,0.03l26.94-7.89
		c0.26-0.08,0.49-0.24,0.65-0.46s0.25-0.48,0.24-0.76c-0.01-0.04-0.02-0.09-0.04-0.13l-0.04-0.14l-2.47-12.55l1.31-0.38l0,0
		c0.34-0.07,0.64-0.29,0.82-0.59s0.23-0.66,0.13-1l-1.07-3.66c-0.09-0.32-0.31-0.59-0.61-0.76C47.77,26.03,47.42,25.99,47.1,26.08
		L47.1,26.08z M27.57,20.53l2.86,9.77c0.1,0.33-0.09,0.68-0.43,0.78c-0.33,0.1-0.68-0.09-0.78-0.43l-2.86-9.78
		c-0.09-0.33,0.1-0.67,0.43-0.76 M46.27,39.19l-2.58-0.18l2.22-1.62L46.27,39.19z M43.99,41.6l-2.87,2.09l-3.54-0.2l2.87-2.09
		L43.99,41.6z M20.03,44.97l2.74,0.16l-2.09,1.5L20.03,44.97z M26.77,45.37l3.54,0.2l-2.87,2.09l-3.54-0.2L26.77,45.37z
		 M34.32,45.81l3.54,0.21l-2.87,2.08l-3.54-0.21L34.32,45.81z M33.56,43.19l-3.54-0.2l2.87-2.08l3.54,0.21L33.56,43.19z
		 M26.01,42.75l-3.53-0.19l2.88-2.09l3.54,0.21L26.01,42.75z M21.96,49.88l2.24,0.13l-1.7,1.24L21.96,49.88z M45.11,43.88l1.82-1.31
		l0.28,1.44L45.11,43.88z M39.67,38.78l-3.54-0.21L39,36.48l3.54,0.21L39.67,38.78z M35,36.25l-2.87,2.08l-3.54-0.21L35,36.24V36.25
		z M21.34,40.24l-2.46,1.78l-0.38-0.95L21.34,40.24z M45.3,34.29l-3.05-0.17l2.84-0.83L45.3,34.29z M46.91,30.1l-31.69,9.28
		l-0.36-1.22l31.71-9.29L46.91,30.1z"/>
	<rect x="26.34" y="27.47" transform="matrix(0.9577 -0.2878 0.2878 0.9577 -7.2394 9.7746)" width="6.58" height="4.08"/>
</g>
</svg>
