<?xml version="1.0" encoding="utf-8"?>
<!-- Generator: Adobe Illustrator 25.2.0, SVG Export Plug-In . SVG Version: 6.00 Build 0)  -->
<svg version="1.1" id="Layer_1" xmlns="http://www.w3.org/2000/svg" xmlns:xlink="http://www.w3.org/1999/xlink" x="0px" y="0px"
	 viewBox="0 0 792 612" style="enable-background:new 0 0 792 612;" xml:space="preserve">
<style type="text/css">
	.st0{fill:#231F20;stroke:#231F20;stroke-miterlimit:10;}
</style>
<g>
	<path class="st0" d="M399.44,330.93l-7.75,1.41c4.62-5.18,17.94-46.07,17.84-47.47c3.27,17.67,34.54,40.88,34.54,40.88l-13.3,2.93
		c-0.66-0.83-16.78-16.5-20.49-26.41C410.28,302.26,402.07,327.87,399.44,330.93z"/>
	<path class="st0" d="M407.41,284.69c-3.49,0.72-37.69-2.21-41.73-5.02c0,0-18.92,41.07-18.25,41.92c0,0,40.37,10.63,41.89,10.27
		c1.94-0.56,16.9-43.13,18.25-46.99C407.59,284.76,407.51,284.67,407.41,284.69z"/>
</g>
</svg>
